<?xml version="1.0" standalone="no"?>
<!DOCTYPE svg PUBLIC "-//W3C//DTD SVG 20010904//EN"
 "http://www.w3.org/TR/2001/REC-SVG-20010904/DTD/svg10.dtd">
<svg version="1.0" xmlns="http://www.w3.org/2000/svg"
 width="1680.000000pt" height="2049.000000pt" viewBox="0 0 1680.000000 2049.000000"
 preserveAspectRatio="xMidYMid meet">

<g transform="translate(0.000000,2049.000000) scale(0.100000,-0.100000)"
fill="#000000" stroke="none">
<path d="M8259 20479 c-144 -12 -375 -44 -669 -94 -146 -25 -497 -83 -780
-130 -283 -47 -753 -126 -1045 -176 -891 -152 -1629 -279 -1650 -284 -17 -4
-36 -68 -145 -495 l-125 -491 -35 -8 c-19 -5 -404 -89 -855 -187 -451 -97
-821 -178 -823 -179 -1 -1 -68 -213 -148 -471 -80 -258 -148 -472 -152 -476
-4 -4 -404 -103 -889 -220 -529 -127 -885 -218 -888 -226 -9 -23 -24 -176 -37
-367 -27 -396 -12 -2285 23 -2915 64 -1161 313 -2675 685 -4161 190 -760 341
-1226 594 -1835 405 -972 1049 -2184 1603 -3014 465 -697 1605 -1957 2577
-2849 929 -852 2522 -1891 2900 -1891 297 0 1420 683 2380 1449 316 252 571
483 1004 911 915 904 1710 1808 2093 2380 496 742 1135 1928 1514 2812 344
802 526 1372 768 2399 305 1293 509 2545 586 3589 49 665 71 2618 35 3150 -10
163 -27 320 -35 342 -4 9 -330 92 -888 227 -485 118 -885 217 -890 221 -4 3
-73 218 -153 476 -80 258 -147 470 -147 471 -1 0 -386 85 -856 187 -470 102
-855 187 -856 188 -2 2 -59 223 -128 491 -69 269 -126 490 -128 491 -11 9
-3663 624 -3894 655 -159 22 -370 42 -420 39 -16 0 -73 -4 -126 -9z m476 -510
c88 -11 279 -40 425 -65 146 -25 747 -126 1335 -224 1199 -201 1996 -337 1999
-342 2 -2 56 -212 121 -468 65 -256 119 -466 120 -467 0 -1 365 -82 810 -179
446 -97 814 -180 819 -184 5 -5 71 -207 146 -450 76 -243 141 -444 144 -447 3
-4 273 -71 599 -150 325 -78 705 -170 843 -204 l252 -61 11 -86 c47 -375 47
-1980 1 -2982 -36 -766 -166 -1739 -370 -2760 -164 -826 -391 -1735 -558
-2235 -288 -860 -761 -1876 -1340 -2875 -353 -610 -589 -960 -907 -1350 -577
-707 -1503 -1677 -2155 -2255 -875 -777 -2293 -1687 -2630 -1689 -289 -1
-1369 657 -2282 1390 -327 263 -538 455 -981 894 -871 862 -1614 1712 -1971
2255 -526 800 -1120 1916 -1495 2812 -213 510 -361 949 -510 1508 -319 1203
-571 2554 -680 3655 -59 589 -75 1089 -76 2320 0 703 3 998 13 1118 13 154 27
270 35 278 2 2 377 94 833 204 456 110 836 204 844 209 9 5 73 191 156 456
l141 448 813 178 c447 98 814 179 816 181 1 2 56 211 122 466 65 254 122 465
125 468 7 7 1463 257 2387 409 212 35 572 95 800 134 368 62 642 102 795 115
85 7 283 -4 450 -25z"/>
<path d="M8355 18914 c-16 -2 -70 -9 -120 -15 -205 -24 -1386 -223 -1845 -310
-375 -71 -980 -211 -1028 -238 -10 -6 -56 -148 -132 -412 l-116 -404 -799
-193 c-439 -106 -800 -194 -802 -196 -3 -2 -72 -204 -155 -447 -83 -244 -154
-448 -158 -452 -4 -4 -352 -88 -774 -186 -421 -98 -769 -181 -773 -185 -19
-18 -53 -768 -53 -1156 1 -1241 157 -2676 451 -4145 184 -918 672 -2190 1344
-3502 678 -1322 1237 -2119 2075 -2952 1042 -1037 2041 -1835 2801 -2239 64
-34 124 -62 133 -62 40 0 379 192 626 355 678 447 1414 1064 2224 1865 536
529 827 869 1183 1376 682 974 1493 2589 1961 3904 246 693 356 1145 521 2150
146 890 225 1587 271 2405 17 300 24 1095 11 1365 -14 300 -31 588 -37 617 -5
25 59 9 -890 228 -346 80 -638 149 -648 153 -15 7 -54 111 -172 457 -88 260
-157 451 -165 454 -8 2 -369 91 -804 196 l-790 191 -115 406 -115 407 -90 25
c-387 108 -797 191 -1775 360 -909 157 -1149 192 -1245 180z m-388 -1410 c15
-12 39 -41 53 -65 l25 -44 -4 -5695 c-2 -3132 -7 -6289 -10 -7015 -6 -1262 -7
-1322 -25 -1358 -52 -104 -142 -39 -412 298 -663 825 -1203 1859 -1610 3080
-150 451 -441 1446 -539 1842 -27 106 -56 206 -66 223 -28 46 -62 41 -119 -18
-55 -57 -91 -119 -315 -547 -299 -570 -341 -635 -414 -635 -29 0 -44 9 -91 58
-352 362 -815 1520 -1165 2912 -141 559 -206 908 -280 1505 -98 788 -195 2008
-195 2449 1 307 20 381 133 502 172 184 684 629 789 684 73 39 131 39 160 -1
18 -23 20 -42 19 -155 -2 -155 15 -827 29 -1189 52 -1306 128 -2013 315 -2900
81 -385 271 -1103 324 -1227 37 -86 98 -138 165 -138 45 0 47 2 194 295 147
291 157 324 148 495 -14 269 -60 789 -101 1130 -37 305 -51 550 -96 1580 -37
861 -42 1185 -32 2015 10 772 10 781 32 842 14 38 40 82 66 111 53 59 172 118
580 287 316 132 355 141 429 105 84 -40 77 92 75 -1488 -1 -1406 1 -1536 36
-2162 33 -575 144 -2054 185 -2460 67 -656 204 -1502 351 -2175 61 -273 91
-374 125 -415 44 -52 82 -33 111 57 21 64 22 118 33 3593 11 3204 27 5253 42
5315 7 28 26 56 63 92 47 46 65 55 152 82 54 17 220 57 368 90 149 33 279 62
290 64 11 3 50 5 87 4 50 -2 75 -8 95 -23z m1329 -9 c138 -24 406 -98 664
-185 633 -212 1276 -512 1904 -888 343 -205 805 -529 1116 -782 158 -128 460
-433 553 -557 249 -334 370 -676 408 -1148 45 -570 -157 -1081 -607 -1529
-115 -115 -235 -218 -519 -446 -250 -200 -447 -387 -459 -433 -9 -37 -8 -38
154 -172 274 -228 441 -433 607 -745 62 -116 96 -208 125 -343 20 -90 22 -131
22 -352 0 -271 -9 -364 -64 -630 -234 -1123 -998 -2565 -2060 -3885 -351 -436
-587 -697 -1015 -1126 -341 -342 -530 -515 -770 -709 -235 -189 -346 -263
-422 -280 -46 -9 -76 24 -105 116 l-23 74 1 1030 c2 995 7 1621 39 4285 20
1604 81 6347 99 7616 16 1103 9 1021 94 1075 55 35 117 38 258 14z"/>
<path d="M10270 15878 c-21 -8 -42 -26 -54 -48 -19 -31 -21 -59 -27 -275 -31
-1095 -45 -3612 -21 -3693 33 -108 101 -133 237 -88 108 36 515 239 755 376
411 235 719 461 989 725 276 271 420 475 497 705 26 79 28 96 28 235 -1 114
-6 172 -22 241 -55 241 -169 438 -374 644 -168 169 -327 289 -783 595 -682
458 -1066 640 -1225 583z"/>
<path d="M10940 10556 c-197 -42 -471 -176 -649 -320 -127 -103 -139 -148
-152 -601 -5 -187 -8 -1033 -7 -1880 3 -1431 4 -1542 20 -1571 50 -91 137 -27
352 256 415 547 836 1227 1046 1691 426 944 538 1565 348 1944 -61 122 -196
276 -311 354 -63 43 -179 97 -252 117 -81 22 -308 28 -395 10z"/>
</g>
</svg>
