<?xml version="1.0" standalone="no"?>
<!DOCTYPE svg PUBLIC "-//W3C//DTD SVG 20010904//EN"
 "http://www.w3.org/TR/2001/REC-SVG-20010904/DTD/svg10.dtd">
<svg version="1.0" xmlns="http://www.w3.org/2000/svg"
 width="80.000000pt" height="56.000000pt" viewBox="0 0 80.000000 56.000000"
 preserveAspectRatio="xMidYMid meet">

<g transform="translate(0.000000,56.000000) scale(0.100000,-0.100000)"
fill="#000000" stroke="none">
<path d="M365 531 l-360 -26 3 -64 c1 -35 4 -67 7 -69 5 -6 777 47 783 53 2 2
1 33 -3 69 l-7 66 -32 -1 c-17 -1 -193 -14 -391 -28z"/>
<path d="M10 181 l0 -181 70 0 70 0 0 105 0 105 110 0 110 0 0 65 c0 44 -4 67
-12 70 -7 2 -88 6 -180 10 l-168 6 0 -180z"/>
<path d="M440 182 l0 -182 70 0 70 0 0 105 0 105 105 0 105 0 0 70 0 70 -68 0
c-38 0 -117 3 -175 7 l-107 6 0 -181z"/>
</g>
</svg>
